<?xml version="1.0" encoding="UTF-8" standalone="no"?>
<!DOCTYPE svg PUBLIC "-//W3C//DTD SVG 1.1//EN"
 "http://www.w3.org/Graphics/SVG/1.1/DTD/svg11.dtd">
<!-- Generated by graphviz version 2.42.4 (0)
 -->
<!-- Title: PuzzleGameER Pages: 1 -->
<svg width="1072pt" height="1343pt"
 viewBox="5.76 5.76 1065.76 1336.76" xmlns="http://www.w3.org/2000/svg" xmlns:xlink="http://www.w3.org/1999/xlink">
<g id="graph0" class="graph" transform="scale(1 1) rotate(0) translate(23.76 1318.76)">
<title>PuzzleGameER</title>
<polygon fill="#f7f4ee" stroke="transparent" points="-18,18 -18,-1313 1042,-1313 1042,18 -18,18"/>
<text text-anchor="middle" x="512" y="-1271.8" font-family="Noto Sans CJK TC" font-size="24.00" fill="#2b2d33">PuzzleGamePlatform ER Model（puzzlegame）</text>
<!-- player -->
<g id="node1" class="node">
<title>player</title>
<polygon fill="#ffffff" stroke="transparent" points="10.5,-49.5 10.5,-276.5 224.5,-276.5 224.5,-49.5 10.5,-49.5"/>
<polygon fill="#334155" stroke="transparent" points="11.5,-250 11.5,-275 223.5,-275 223.5,-250 11.5,-250"/>
<text text-anchor="start" x="73.5" y="-259.8" font-family="Noto Sans CJK TC" font-weight="bold" font-size="14.00" fill="white">player｜玩家</text>
<text text-anchor="start" x="16.5" y="-234.8" font-family="Noto Sans CJK TC" font-weight="bold" font-size="14.00">PK</text>
<text text-anchor="start" x="35.5" y="-234.8" font-family="Noto Sans CJK TC" font-size="14.00"> player_no : INT</text>
<text text-anchor="start" x="16.5" y="-208.8" font-family="Noto Sans CJK TC" font-size="14.00">player_name : VARCHAR(50)</text>
<text text-anchor="start" x="16.5" y="-183.8" font-family="Noto Sans CJK TC" font-size="14.00">account : VARCHAR(50) UNIQUE</text>
<text text-anchor="start" x="16.5" y="-158.8" font-family="Noto Sans CJK TC" font-size="14.00">password : VARCHAR(100)</text>
<text text-anchor="start" x="16.5" y="-133.8" font-family="Noto Sans CJK TC" font-size="14.00">role : VARCHAR(20)</text>
<text text-anchor="start" x="16.5" y="-108.8" font-family="Noto Sans CJK TC" font-size="14.00">status : VARCHAR(20)</text>
<text text-anchor="start" x="16.5" y="-83.8" font-family="Noto Sans CJK TC" font-size="14.00">create_time : DATETIME</text>
<text text-anchor="start" x="16.5" y="-58.8" font-family="Noto Sans CJK TC" font-size="14.00">last_login_time : DATETIME</text>
<polygon fill="none" stroke="#334155" points="10.5,-49.5 10.5,-276.5 224.5,-276.5 224.5,-49.5 10.5,-49.5"/>
</g>
<!-- player_game_record -->
<g id="node8" class="node">
<title>player_game_record</title>
<polygon fill="#ffffff" stroke="transparent" points="389,-540.5 389,-817.5 617,-817.5 617,-540.5 389,-540.5"/>
<polygon fill="#0f6b65" stroke="transparent" points="390,-791 390,-816 616,-816 616,-791 390,-791"/>
<text text-anchor="start" x="395" y="-800.8" font-family="Noto Sans CJK TC" font-weight="bold" font-size="14.00" fill="white">player_game_record｜遊玩紀錄</text>
<text text-anchor="start" x="395" y="-775.8" font-family="Noto Sans CJK TC" font-weight="bold" font-size="14.00">PK</text>
<text text-anchor="start" x="414" y="-775.8" font-family="Noto Sans CJK TC" font-size="14.00"> record_no : INT</text>
<text text-anchor="start" x="395" y="-750.8" font-family="Noto Sans CJK TC" font-weight="bold" font-size="14.00">FK</text>
<text text-anchor="start" x="414" y="-750.8" font-family="Noto Sans CJK TC" font-size="14.00"> player_no : INT</text>
<text text-anchor="start" x="395" y="-725.8" font-family="Noto Sans CJK TC" font-weight="bold" font-size="14.00">FK</text>
<text text-anchor="start" x="414" y="-725.8" font-family="Noto Sans CJK TC" font-size="14.00"> game_no : INT</text>
<text text-anchor="start" x="395" y="-700.8" font-family="Noto Sans CJK TC" font-weight="bold" font-size="14.00">FK</text>
<text text-anchor="start" x="414" y="-700.8" font-family="Noto Sans CJK TC" font-size="14.00"> current_room_no : INT</text>
<text text-anchor="start" x="395" y="-675.8" font-family="Noto Sans CJK TC" font-weight="bold" font-size="14.00">FK</text>
<text text-anchor="start" x="414" y="-675.8" font-family="Noto Sans CJK TC" font-size="14.00"> current_puzzle_no : INT</text>
<text text-anchor="start" x="395" y="-650.8" font-family="Noto Sans CJK TC" font-weight="bold" font-size="14.00">FK</text>
<text text-anchor="start" x="414" y="-650.8" font-family="Noto Sans CJK TC" font-size="14.00"> ending_no : INT</text>
<text text-anchor="start" x="395" y="-624.8" font-family="Noto Sans CJK TC" font-size="14.00">progress_status : VARCHAR(30)</text>
<text text-anchor="start" x="395" y="-599.8" font-family="Noto Sans CJK TC" font-size="14.00">result_status : VARCHAR(30)</text>
<text text-anchor="start" x="395" y="-574.8" font-family="Noto Sans CJK TC" font-size="14.00">current_step : VARCHAR(255)</text>
<text text-anchor="start" x="395" y="-549.8" font-family="Noto Sans CJK TC" font-size="14.00">start_time / end_time : DATETIME</text>
<polygon fill="none" stroke="#0f6b65" points="389,-540.5 389,-817.5 617,-817.5 617,-540.5 389,-540.5"/>
</g>
<!-- player&#45;&gt;player_game_record -->
<g id="edge1" class="edge">
<title>player&#45;&gt;player_game_record</title>
<path fill="none" stroke="#334155" stroke-width="1.2" d="M118,-276.55C118,-393.64 118,-559.25 118,-559.25 118,-559.25 381.79,-559.25 381.79,-559.25"/>
<polygon fill="#334155" stroke="#334155" stroke-width="1.2" points="381.79,-561.7 388.79,-559.25 381.79,-556.8 381.79,-561.7"/>
<text text-anchor="middle" x="308" y="-363" font-family="Noto Sans CJK TC" font-size="10.00"> 1 : N </text>
</g>
<!-- save_game -->
<g id="node11" class="node">
<title>save_game</title>
<polygon fill="#ffffff" stroke="transparent" points="802.5,-184 802.5,-386 992.5,-386 992.5,-184 802.5,-184"/>
<polygon fill="#0f6b65" stroke="transparent" points="803.5,-360 803.5,-385 991.5,-385 991.5,-360 803.5,-360"/>
<text text-anchor="start" x="822.5" y="-369.8" font-family="Noto Sans CJK TC" font-weight="bold" font-size="14.00" fill="white">save_game｜遊戲存檔</text>
<text text-anchor="start" x="808.5" y="-344.8" font-family="Noto Sans CJK TC" font-weight="bold" font-size="14.00">PK</text>
<text text-anchor="start" x="827.5" y="-344.8" font-family="Noto Sans CJK TC" font-size="14.00"> save_no : INT</text>
<text text-anchor="start" x="808.5" y="-319.8" font-family="Noto Sans CJK TC" font-weight="bold" font-size="14.00">FK</text>
<text text-anchor="start" x="827.5" y="-319.8" font-family="Noto Sans CJK TC" font-size="14.00"> record_no : INT</text>
<text text-anchor="start" x="808.5" y="-294.8" font-family="Noto Sans CJK TC" font-weight="bold" font-size="14.00">FK</text>
<text text-anchor="start" x="827.5" y="-294.8" font-family="Noto Sans CJK TC" font-size="14.00"> player_no : INT</text>
<text text-anchor="start" x="808.5" y="-269.8" font-family="Noto Sans CJK TC" font-weight="bold" font-size="14.00">FK</text>
<text text-anchor="start" x="827.5" y="-269.8" font-family="Noto Sans CJK TC" font-size="14.00"> game_no : INT</text>
<text text-anchor="start" x="808.5" y="-243.8" font-family="Noto Sans CJK TC" font-size="14.00">save_name : VARCHAR(100)</text>
<text text-anchor="start" x="808.5" y="-218.8" font-family="Noto Sans CJK TC" font-size="14.00">save_data : TEXT</text>
<text text-anchor="start" x="808.5" y="-193.8" font-family="Noto Sans CJK TC" font-size="14.00">save_time : DATETIME</text>
<polygon fill="none" stroke="#0f6b65" points="802.5,-184 802.5,-386 992.5,-386 992.5,-184 802.5,-184"/>
</g>
<!-- player&#45;&gt;save_game -->
<g id="edge17" class="edge">
<title>player&#45;&gt;save_game</title>
<path fill="none" stroke="#61656f" stroke-width="1.2" d="M224.73,-195C224.73,-195 795.46,-195 795.46,-195"/>
<polygon fill="#61656f" stroke="#61656f" stroke-width="1.2" points="795.46,-197.45 802.46,-195 795.46,-192.55 795.46,-197.45"/>
<text text-anchor="middle" x="503" y="-166" font-family="Noto Sans CJK TC" font-size="10.00"> 1 : N </text>
</g>
<!-- player_achievement -->
<g id="node12" class="node">
<title>player_achievement</title>
<polygon fill="#ffffff" stroke="transparent" points="771,0 771,-152 1024,-152 1024,0 771,0"/>
<polygon fill="#0f6b65" stroke="transparent" points="772.5,-126 772.5,-151 1023.5,-151 1023.5,-126 772.5,-126"/>
<text text-anchor="start" x="790.5" y="-135.8" font-family="Noto Sans CJK TC" font-weight="bold" font-size="14.00" fill="white">player_achievement｜玩家成就</text>
<text text-anchor="start" x="777.5" y="-110.8" font-family="Noto Sans CJK TC" font-weight="bold" font-size="14.00">PK</text>
<text text-anchor="start" x="796.5" y="-110.8" font-family="Noto Sans CJK TC" font-size="14.00"> player_achievement_no : INT</text>
<text text-anchor="start" x="777.5" y="-85.8" font-family="Noto Sans CJK TC" font-weight="bold" font-size="14.00">FK</text>
<text text-anchor="start" x="796.5" y="-85.8" font-family="Noto Sans CJK TC" font-size="14.00"> player_no : INT</text>
<text text-anchor="start" x="777.5" y="-60.8" font-family="Noto Sans CJK TC" font-weight="bold" font-size="14.00">FK</text>
<text text-anchor="start" x="796.5" y="-60.8" font-family="Noto Sans CJK TC" font-size="14.00"> achievement_no : INT</text>
<text text-anchor="start" x="777.5" y="-34.8" font-family="Noto Sans CJK TC" font-size="14.00">unlock_time : DATETIME</text>
<text text-anchor="start" x="777.5" y="-9.8" font-family="Noto Sans CJK TC" font-size="14.00">UNIQUE(player_no, achievement_no)</text>
<polygon fill="none" stroke="#0f6b65" points="771,0 771,-152 1024,-152 1024,0 771,0"/>
</g>
<!-- player&#45;&gt;player_achievement -->
<g id="edge19" class="edge">
<title>player&#45;&gt;player_achievement</title>
<path fill="none" stroke="#334155" stroke-width="1.2" d="M224.73,-100.75C224.73,-100.75 763.81,-100.75 763.81,-100.75"/>
<polygon fill="#334155" stroke="#334155" stroke-width="1.2" points="763.81,-103.2 770.81,-100.75 763.81,-98.3 763.81,-103.2"/>
<text text-anchor="middle" x="503" y="-79" font-family="Noto Sans CJK TC" font-size="10.00"> 1 : N </text>
</g>
<!-- game -->
<g id="node2" class="node">
<title>game</title>
<polygon fill="#ffffff" stroke="transparent" points="0,-578 0,-780 235,-780 235,-578 0,-578"/>
<polygon fill="#7c5c25" stroke="transparent" points="1.5,-754 1.5,-779 234.5,-779 234.5,-754 1.5,-754"/>
<text text-anchor="start" x="77" y="-763.8" font-family="Noto Sans CJK TC" font-weight="bold" font-size="14.00" fill="white">game｜遊戲</text>
<text text-anchor="start" x="6.5" y="-738.8" font-family="Noto Sans CJK TC" font-weight="bold" font-size="14.00">PK</text>
<text text-anchor="start" x="25.5" y="-738.8" font-family="Noto Sans CJK TC" font-size="14.00"> game_no : INT</text>
<text text-anchor="start" x="6.5" y="-712.8" font-family="Noto Sans CJK TC" font-size="14.00">game_name : VARCHAR(100)</text>
<text text-anchor="start" x="6.5" y="-687.8" font-family="Noto Sans CJK TC" font-size="14.00">difficulty : VARCHAR(20)</text>
<text text-anchor="start" x="6.5" y="-662.8" font-family="Noto Sans CJK TC" font-size="14.00">description : VARCHAR(255)</text>
<text text-anchor="start" x="6.5" y="-637.8" font-family="Noto Sans CJK TC" font-size="14.00">is_active : BOOLEAN</text>
<text text-anchor="start" x="6.5" y="-612.8" font-family="Noto Sans CJK TC" font-size="14.00">cover_image_path : VARCHAR(255)</text>
<text text-anchor="start" x="6.5" y="-587.8" font-family="Noto Sans CJK TC" font-size="14.00">create_time : DATETIME</text>
<polygon fill="none" stroke="#7c5c25" points="0,-578 0,-780 235,-780 235,-578 0,-578"/>
</g>
<!-- room -->
<g id="node3" class="node">
<title>room</title>
<polygon fill="#ffffff" stroke="transparent" points="406,-1109 406,-1261 600,-1261 600,-1109 406,-1109"/>
<polygon fill="#866a38" stroke="transparent" points="407,-1235 407,-1260 599,-1260 599,-1235 407,-1235"/>
<text text-anchor="start" x="462.5" y="-1244.8" font-family="Noto Sans CJK TC" font-weight="bold" font-size="14.00" fill="white">room｜房間</text>
<text text-anchor="start" x="412" y="-1219.8" font-family="Noto Sans CJK TC" font-weight="bold" font-size="14.00">PK</text>
<text text-anchor="start" x="431" y="-1219.8" font-family="Noto Sans CJK TC" font-size="14.00"> room_no : INT</text>
<text text-anchor="start" x="412" y="-1194.8" font-family="Noto Sans CJK TC" font-weight="bold" font-size="14.00">FK</text>
<text text-anchor="start" x="431" y="-1194.8" font-family="Noto Sans CJK TC" font-size="14.00"> game_no : INT</text>
<text text-anchor="start" x="412" y="-1168.8" font-family="Noto Sans CJK TC" font-size="14.00">room_name : VARCHAR(100)</text>
<text text-anchor="start" x="412" y="-1143.8" font-family="Noto Sans CJK TC" font-size="14.00">description : VARCHAR(255)</text>
<text text-anchor="start" x="412" y="-1118.8" font-family="Noto Sans CJK TC" font-size="14.00">room_order : INT</text>
<polygon fill="none" stroke="#866a38" points="406,-1109 406,-1261 600,-1261 600,-1109 406,-1109"/>
</g>
<!-- game&#45;&gt;room -->
<g id="edge6" class="edge">
<title>game&#45;&gt;room</title>
<path fill="none" stroke="#7c5c25" stroke-width="1.2" d="M59,-780.18C59,-927.84 59,-1185 59,-1185 59,-1185 398.84,-1185 398.84,-1185"/>
<polygon fill="#7c5c25" stroke="#7c5c25" stroke-width="1.2" points="398.84,-1187.45 405.84,-1185 398.84,-1182.55 398.84,-1187.45"/>
<text text-anchor="middle" x="308" y="-1155" font-family="Noto Sans CJK TC" font-size="10.00"> 1 : N </text>
</g>
<!-- puzzle -->
<g id="node4" class="node">
<title>puzzle</title>
<polygon fill="#ffffff" stroke="transparent" points="790,-996 790,-1198 1005,-1198 1005,-996 790,-996"/>
<polygon fill="#866a38" stroke="transparent" points="791.5,-1172 791.5,-1197 1004.5,-1197 1004.5,-1172 791.5,-1172"/>
<text text-anchor="start" x="853.5" y="-1181.8" font-family="Noto Sans CJK TC" font-weight="bold" font-size="14.00" fill="white">puzzle｜謎題</text>
<text text-anchor="start" x="796.5" y="-1156.8" font-family="Noto Sans CJK TC" font-weight="bold" font-size="14.00">PK</text>
<text text-anchor="start" x="815.5" y="-1156.8" font-family="Noto Sans CJK TC" font-size="14.00"> puzzle_no : INT</text>
<text text-anchor="start" x="796.5" y="-1131.8" font-family="Noto Sans CJK TC" font-weight="bold" font-size="14.00">FK</text>
<text text-anchor="start" x="815.5" y="-1131.8" font-family="Noto Sans CJK TC" font-size="14.00"> game_no : INT</text>
<text text-anchor="start" x="796.5" y="-1106.8" font-family="Noto Sans CJK TC" font-weight="bold" font-size="14.00">FK</text>
<text text-anchor="start" x="815.5" y="-1106.8" font-family="Noto Sans CJK TC" font-size="14.00"> room_no : INT</text>
<text text-anchor="start" x="796.5" y="-1080.8" font-family="Noto Sans CJK TC" font-size="14.00">puzzle_name : VARCHAR(100)</text>
<text text-anchor="start" x="796.5" y="-1055.8" font-family="Noto Sans CJK TC" font-size="14.00">correct_answer : VARCHAR(100)</text>
<text text-anchor="start" x="796.5" y="-1030.8" font-family="Noto Sans CJK TC" font-size="14.00">hint : VARCHAR(255)</text>
<text text-anchor="start" x="796.5" y="-1005.8" font-family="Noto Sans CJK TC" font-size="14.00">puzzle_order : INT</text>
<polygon fill="none" stroke="#866a38" points="790,-996 790,-1198 1005,-1198 1005,-996 790,-996"/>
</g>
<!-- game&#45;&gt;puzzle -->
<g id="edge7" class="edge">
<title>game&#45;&gt;puzzle</title>
<path fill="none" stroke="#7c5c25" stroke-width="1.2" d="M118,-780.24C118,-899.69 118,-1082.25 118,-1082.25 118,-1082.25 782.93,-1082.25 782.93,-1082.25"/>
<polygon fill="#7c5c25" stroke="#7c5c25" stroke-width="1.2" points="782.93,-1084.7 789.93,-1082.25 782.93,-1079.8 782.93,-1084.7"/>
<text text-anchor="middle" x="503" y="-1069" font-family="Noto Sans CJK TC" font-size="10.00"> 1 : N </text>
</g>
<!-- item -->
<g id="node5" class="node">
<title>item</title>
<polygon fill="#ffffff" stroke="transparent" points="408.5,-850 408.5,-1002 597.5,-1002 597.5,-850 408.5,-850"/>
<polygon fill="#866a38" stroke="transparent" points="410,-976 410,-1001 597,-1001 597,-976 410,-976"/>
<text text-anchor="start" x="465.5" y="-985.8" font-family="Noto Sans CJK TC" font-weight="bold" font-size="14.00" fill="white">item｜道具</text>
<text text-anchor="start" x="415" y="-960.8" font-family="Noto Sans CJK TC" font-weight="bold" font-size="14.00">PK</text>
<text text-anchor="start" x="434" y="-960.8" font-family="Noto Sans CJK TC" font-size="14.00"> item_no : INT</text>
<text text-anchor="start" x="415" y="-935.8" font-family="Noto Sans CJK TC" font-weight="bold" font-size="14.00">FK</text>
<text text-anchor="start" x="434" y="-935.8" font-family="Noto Sans CJK TC" font-size="14.00"> game_no : INT</text>
<text text-anchor="start" x="415" y="-909.8" font-family="Noto Sans CJK TC" font-size="14.00">item_name : VARCHAR(100)</text>
<text text-anchor="start" x="415" y="-884.8" font-family="Noto Sans CJK TC" font-size="14.00">item_type : VARCHAR(30)</text>
<text text-anchor="start" x="415" y="-859.8" font-family="Noto Sans CJK TC" font-size="14.00">description : VARCHAR(255)</text>
<polygon fill="none" stroke="#866a38" points="408.5,-850 408.5,-1002 597.5,-1002 597.5,-850 408.5,-850"/>
</g>
<!-- game&#45;&gt;item -->
<g id="edge9" class="edge">
<title>game&#45;&gt;item</title>
<path fill="none" stroke="#7c5c25" stroke-width="1.2" d="M177,-780.18C177,-848.39 177,-926 177,-926 177,-926 401.27,-926 401.27,-926"/>
<polygon fill="#7c5c25" stroke="#7c5c25" stroke-width="1.2" points="401.27,-928.45 408.27,-926 401.27,-923.55 401.27,-928.45"/>
<text text-anchor="middle" x="308" y="-829" font-family="Noto Sans CJK TC" font-size="10.00"> 1 : N </text>
</g>
<!-- ending -->
<g id="node6" class="node">
<title>ending</title>
<polygon fill="#ffffff" stroke="transparent" points="795,-418 795,-570 1000,-570 1000,-418 795,-418"/>
<polygon fill="#866a38" stroke="transparent" points="796.5,-544 796.5,-569 999.5,-569 999.5,-544 796.5,-544"/>
<text text-anchor="start" x="852.5" y="-553.8" font-family="Noto Sans CJK TC" font-weight="bold" font-size="14.00" fill="white">ending｜結局</text>
<text text-anchor="start" x="801.5" y="-528.8" font-family="Noto Sans CJK TC" font-weight="bold" font-size="14.00">PK</text>
<text text-anchor="start" x="820.5" y="-528.8" font-family="Noto Sans CJK TC" font-size="14.00"> ending_no : INT</text>
<text text-anchor="start" x="801.5" y="-503.8" font-family="Noto Sans CJK TC" font-weight="bold" font-size="14.00">FK</text>
<text text-anchor="start" x="820.5" y="-503.8" font-family="Noto Sans CJK TC" font-size="14.00"> game_no : INT</text>
<text text-anchor="start" x="801.5" y="-477.8" font-family="Noto Sans CJK TC" font-size="14.00">ending_name : VARCHAR(100)</text>
<text text-anchor="start" x="801.5" y="-452.8" font-family="Noto Sans CJK TC" font-size="14.00">ending_type : VARCHAR(30)</text>
<text text-anchor="start" x="801.5" y="-427.8" font-family="Noto Sans CJK TC" font-size="14.00">description : VARCHAR(255)</text>
<polygon fill="none" stroke="#866a38" points="795,-418 795,-570 1000,-570 1000,-418 795,-418"/>
</g>
<!-- game&#45;&gt;ending -->
<g id="edge10" class="edge">
<title>game&#45;&gt;ending</title>
<path fill="none" stroke="#7c5c25" stroke-width="1.2" d="M233,-577.95C233,-528.41 233,-479.25 233,-479.25 233,-479.25 787.76,-479.25 787.76,-479.25"/>
<polygon fill="#7c5c25" stroke="#7c5c25" stroke-width="1.2" points="787.76,-481.7 794.76,-479.25 787.76,-476.8 787.76,-481.7"/>
<text text-anchor="middle" x="503" y="-425" font-family="Noto Sans CJK TC" font-size="10.00"> 1 : N </text>
</g>
<!-- achievement -->
<g id="node7" class="node">
<title>achievement</title>
<polygon fill="#ffffff" stroke="transparent" points="381,-206 381,-358 625,-358 625,-206 381,-206"/>
<polygon fill="#866a38" stroke="transparent" points="382,-332 382,-357 624,-357 624,-332 382,-332"/>
<text text-anchor="start" x="436" y="-341.8" font-family="Noto Sans CJK TC" font-weight="bold" font-size="14.00" fill="white">achievement｜成就</text>
<text text-anchor="start" x="387" y="-316.8" font-family="Noto Sans CJK TC" font-weight="bold" font-size="14.00">PK</text>
<text text-anchor="start" x="406" y="-316.8" font-family="Noto Sans CJK TC" font-size="14.00"> achievement_no : INT</text>
<text text-anchor="start" x="387" y="-291.8" font-family="Noto Sans CJK TC" font-weight="bold" font-size="14.00">FK</text>
<text text-anchor="start" x="406" y="-291.8" font-family="Noto Sans CJK TC" font-size="14.00"> game_no : INT</text>
<text text-anchor="start" x="387" y="-265.8" font-family="Noto Sans CJK TC" font-size="14.00">achievement_name : VARCHAR(100)</text>
<text text-anchor="start" x="387" y="-240.8" font-family="Noto Sans CJK TC" font-size="14.00">description : VARCHAR(255)</text>
<text text-anchor="start" x="387" y="-215.8" font-family="Noto Sans CJK TC" font-size="14.00">condition_text : VARCHAR(255)</text>
<polygon fill="none" stroke="#866a38" points="381,-206 381,-358 625,-358 625,-206 381,-206"/>
</g>
<!-- game&#45;&gt;achievement -->
<g id="edge11" class="edge">
<title>game&#45;&gt;achievement</title>
<path fill="none" stroke="#7c5c25" stroke-width="1.2" d="M228,-577.75C228,-470.73 228,-317.25 228,-317.25 228,-317.25 373.78,-317.25 373.78,-317.25"/>
<polygon fill="#7c5c25" stroke="#7c5c25" stroke-width="1.2" points="373.78,-319.7 380.78,-317.25 373.78,-314.8 373.78,-319.7"/>
<text text-anchor="middle" x="308" y="-300" font-family="Noto Sans CJK TC" font-size="10.00"> 1 : N </text>
</g>
<!-- game&#45;&gt;player_game_record -->
<g id="edge2" class="edge">
<title>game&#45;&gt;player_game_record</title>
<path fill="none" stroke="#7c5c25" stroke-width="1.2" d="M235.26,-679C235.26,-679 381.94,-679 381.94,-679"/>
<polygon fill="#7c5c25" stroke="#7c5c25" stroke-width="1.2" points="381.94,-681.45 388.94,-679 381.94,-676.55 381.94,-681.45"/>
<text text-anchor="middle" x="308" y="-682" font-family="Noto Sans CJK TC" font-size="10.00"> 1 : N </text>
</g>
<!-- game&#45;&gt;save_game -->
<g id="edge18" class="edge">
<title>game&#45;&gt;save_game</title>
<path fill="none" stroke="#61656f" stroke-width="1.2" d="M230,-577.81C230,-486.81 230,-367.33 230,-367.33 230,-367.33 795.22,-367.33 795.22,-367.33"/>
<polygon fill="#61656f" stroke="#61656f" stroke-width="1.2" points="795.22,-369.78 802.22,-367.33 795.22,-364.88 795.22,-369.78"/>
<text text-anchor="middle" x="503" y="-500" font-family="Noto Sans CJK TC" font-size="10.00"> 1 : N </text>
</g>
<!-- room&#45;&gt;puzzle -->
<g id="edge8" class="edge">
<title>room&#45;&gt;puzzle</title>
<path fill="none" stroke="#61656f" stroke-width="1.2" d="M600.01,-1168.33C600.01,-1168.33 782.75,-1168.33 782.75,-1168.33"/>
<polygon fill="#61656f" stroke="#61656f" stroke-width="1.2" points="782.75,-1170.78 789.75,-1168.33 782.75,-1165.88 782.75,-1170.78"/>
<text text-anchor="middle" x="698" y="-1155" font-family="Noto Sans CJK TC" font-size="10.00"> 1 : N </text>
</g>
<!-- room&#45;&gt;player_game_record -->
<g id="edge3" class="edge">
<title>room&#45;&gt;player_game_record</title>
<path fill="none" stroke="#61656f" stroke-width="1.2" d="M600.08,-1138.67C603.2,-1138.67 605,-1138.67 605,-1138.67 605,-1138.67 605,-824.54 605,-824.54"/>
<polygon fill="#61656f" stroke="#61656f" stroke-width="1.2" points="607.45,-824.54 605,-817.54 602.55,-824.54 607.45,-824.54"/>
<text text-anchor="middle" x="308" y="-944.5" font-family="Noto Sans CJK TC" font-size="10.00"> 1 : N（目前房間） </text>
</g>
<!-- puzzle&#45;&gt;player_game_record -->
<g id="edge4" class="edge">
<title>puzzle&#45;&gt;player_game_record</title>
<path fill="none" stroke="#61656f" stroke-width="1.2" d="M789.66,-1055.5C707.72,-1055.5 609,-1055.5 609,-1055.5 609,-1055.5 609,-824.59 609,-824.59"/>
<polygon fill="#61656f" stroke="#61656f" stroke-width="1.2" points="611.45,-824.59 609,-817.59 606.55,-824.59 611.45,-824.59"/>
<text text-anchor="middle" x="698" y="-988" font-family="Noto Sans CJK TC" font-size="10.00"> 1 : N（目前謎題） </text>
</g>
<!-- puzzle_record -->
<g id="node9" class="node">
<title>puzzle_record</title>
<polygon fill="#ffffff" stroke="transparent" points="795,-602.5 795,-779.5 1000,-779.5 1000,-602.5 795,-602.5"/>
<polygon fill="#0f6b65" stroke="transparent" points="796.5,-753 796.5,-778 999.5,-778 999.5,-753 796.5,-753"/>
<text text-anchor="start" x="812.5" y="-762.8" font-family="Noto Sans CJK TC" font-weight="bold" font-size="14.00" fill="white">puzzle_record｜答題紀錄</text>
<text text-anchor="start" x="801.5" y="-737.8" font-family="Noto Sans CJK TC" font-weight="bold" font-size="14.00">PK</text>
<text text-anchor="start" x="820.5" y="-737.8" font-family="Noto Sans CJK TC" font-size="14.00"> puzzle_record_no : INT</text>
<text text-anchor="start" x="801.5" y="-712.8" font-family="Noto Sans CJK TC" font-weight="bold" font-size="14.00">FK</text>
<text text-anchor="start" x="820.5" y="-712.8" font-family="Noto Sans CJK TC" font-size="14.00"> record_no : INT</text>
<text text-anchor="start" x="801.5" y="-687.8" font-family="Noto Sans CJK TC" font-weight="bold" font-size="14.00">FK</text>
<text text-anchor="start" x="820.5" y="-687.8" font-family="Noto Sans CJK TC" font-size="14.00"> puzzle_no : INT</text>
<text text-anchor="start" x="801.5" y="-661.8" font-family="Noto Sans CJK TC" font-size="14.00">input_answer : VARCHAR(100)</text>
<text text-anchor="start" x="801.5" y="-636.8" font-family="Noto Sans CJK TC" font-size="14.00">is_correct : BOOLEAN</text>
<text text-anchor="start" x="801.5" y="-611.8" font-family="Noto Sans CJK TC" font-size="14.00">answer_time : DATETIME</text>
<polygon fill="none" stroke="#0f6b65" points="795,-602.5 795,-779.5 1000,-779.5 1000,-602.5 795,-602.5"/>
</g>
<!-- puzzle&#45;&gt;puzzle_record -->
<g id="edge13" class="edge">
<title>puzzle&#45;&gt;puzzle_record</title>
<path fill="none" stroke="#61656f" stroke-width="1.2" d="M789.78,-1028.75C786.12,-1028.75 784,-1028.75 784,-1028.75 784,-1028.75 784,-720.5 784,-720.5 784,-720.5 787.88,-720.5 787.88,-720.5"/>
<polygon fill="#61656f" stroke="#61656f" stroke-width="1.2" points="787.88,-722.95 794.88,-720.5 787.88,-718.05 787.88,-722.95"/>
<text text-anchor="middle" x="698" y="-847.5" font-family="Noto Sans CJK TC" font-size="10.00"> 1 : N </text>
</g>
<!-- inventory -->
<g id="node10" class="node">
<title>inventory</title>
<polygon fill="#ffffff" stroke="transparent" points="798,-812 798,-964 997,-964 997,-812 798,-812"/>
<polygon fill="#0f6b65" stroke="transparent" points="799.5,-938 799.5,-963 996.5,-963 996.5,-938 799.5,-938"/>
<text text-anchor="start" x="828" y="-947.8" font-family="Noto Sans CJK TC" font-weight="bold" font-size="14.00" fill="white">inventory｜背包紀錄</text>
<text text-anchor="start" x="804.5" y="-922.8" font-family="Noto Sans CJK TC" font-weight="bold" font-size="14.00">PK</text>
<text text-anchor="start" x="823.5" y="-922.8" font-family="Noto Sans CJK TC" font-size="14.00"> inventory_no : INT</text>
<text text-anchor="start" x="804.5" y="-897.8" font-family="Noto Sans CJK TC" font-weight="bold" font-size="14.00">FK</text>
<text text-anchor="start" x="823.5" y="-897.8" font-family="Noto Sans CJK TC" font-size="14.00"> record_no : INT</text>
<text text-anchor="start" x="804.5" y="-872.8" font-family="Noto Sans CJK TC" font-weight="bold" font-size="14.00">FK</text>
<text text-anchor="start" x="823.5" y="-872.8" font-family="Noto Sans CJK TC" font-size="14.00"> item_no : INT</text>
<text text-anchor="start" x="804.5" y="-846.8" font-family="Noto Sans CJK TC" font-size="14.00">get_time : DATETIME</text>
<text text-anchor="start" x="804.5" y="-821.8" font-family="Noto Sans CJK TC" font-size="14.00">UNIQUE(record_no, item_no)</text>
<polygon fill="none" stroke="#0f6b65" points="798,-812 798,-964 997,-964 997,-812 798,-812"/>
</g>
<!-- item&#45;&gt;inventory -->
<g id="edge15" class="edge">
<title>item&#45;&gt;inventory</title>
<path fill="none" stroke="#61656f" stroke-width="1.2" d="M597.74,-907C597.74,-907 790.7,-907 790.7,-907"/>
<polygon fill="#61656f" stroke="#61656f" stroke-width="1.2" points="790.7,-909.45 797.7,-907 790.7,-904.55 790.7,-909.45"/>
<text text-anchor="middle" x="698" y="-910" font-family="Noto Sans CJK TC" font-size="10.00"> 1 : N </text>
</g>
<!-- ending&#45;&gt;player_game_record -->
<g id="edge5" class="edge">
<title>ending&#45;&gt;player_game_record</title>
<path fill="none" stroke="#61656f" stroke-width="1.2" d="M794.88,-555.25C794.88,-555.25 624.27,-555.25 624.27,-555.25"/>
<polygon fill="#61656f" stroke="#61656f" stroke-width="1.2" points="624.27,-552.8 617.27,-555.25 624.27,-557.7 624.27,-552.8"/>
<text text-anchor="middle" x="698" y="-632" font-family="Noto Sans CJK TC" font-size="10.00"> 1 : N </text>
</g>
<!-- achievement&#45;&gt;player_achievement -->
<g id="edge20" class="edge">
<title>achievement&#45;&gt;player_achievement</title>
<path fill="none" stroke="#61656f" stroke-width="1.2" d="M625.22,-282C698.67,-282 778,-282 778,-282 778,-282 778,-159.12 778,-159.12"/>
<polygon fill="#61656f" stroke="#61656f" stroke-width="1.2" points="780.45,-159.12 778,-152.12 775.55,-159.12 780.45,-159.12"/>
<text text-anchor="middle" x="698" y="-133" font-family="Noto Sans CJK TC" font-size="10.00"> 1 : N </text>
</g>
<!-- player_game_record&#45;&gt;puzzle_record -->
<g id="edge12" class="edge">
<title>player_game_record&#45;&gt;puzzle_record</title>
<path fill="none" stroke="#0f6b65" stroke-width="1.2" d="M617.11,-661.5C617.11,-661.5 787.75,-661.5 787.75,-661.5"/>
<polygon fill="#0f6b65" stroke="#0f6b65" stroke-width="1.2" points="787.75,-663.95 794.75,-661.5 787.75,-659.05 787.75,-663.95"/>
<text text-anchor="middle" x="698" y="-688" font-family="Noto Sans CJK TC" font-size="10.00"> 1 : N </text>
</g>
<!-- player_game_record&#45;&gt;inventory -->
<g id="edge14" class="edge">
<title>player_game_record&#45;&gt;inventory</title>
<path fill="none" stroke="#0f6b65" stroke-width="1.2" d="M613,-817.77C613,-827.61 613,-833.75 613,-833.75 613,-833.75 791,-833.75 791,-833.75"/>
<polygon fill="#0f6b65" stroke="#0f6b65" stroke-width="1.2" points="791,-836.2 798,-833.75 791,-831.3 791,-836.2"/>
<text text-anchor="middle" x="698" y="-777" font-family="Noto Sans CJK TC" font-size="10.00"> 1 : N </text>
</g>
<!-- player_game_record&#45;&gt;save_game -->
<g id="edge16" class="edge">
<title>player_game_record&#45;&gt;save_game</title>
<path fill="none" stroke="#0f6b65" stroke-width="1.2" d="M503,-540.22C503,-460.74 503,-376.67 503,-376.67 503,-376.67 795.25,-376.67 795.25,-376.67"/>
<polygon fill="#0f6b65" stroke="#0f6b65" stroke-width="1.2" points="795.25,-379.12 802.25,-376.67 795.25,-374.22 795.25,-379.12"/>
<text text-anchor="middle" x="698" y="-568" font-family="Noto Sans CJK TC" font-size="10.00"> 1 : N </text>
</g>
</g>
</svg>
