<?xml version="1.0" encoding="UTF-8" standalone="no"?>
<!DOCTYPE svg PUBLIC "-//W3C//DTD SVG 1.1//EN"
 "http://www.w3.org/Graphics/SVG/1.1/DTD/svg11.dtd">
<!-- Generated by graphviz version 2.42.4 (0)
 -->
<!-- Title: Architecture Pages: 1 -->
<svg width="820pt" height="466pt"
 viewBox="0.00 0.00 819.50 466.00" xmlns="http://www.w3.org/2000/svg" xmlns:xlink="http://www.w3.org/1999/xlink">
<g id="graph0" class="graph" transform="scale(1 1) rotate(0) translate(18 448)">
<title>Architecture</title>
<polygon fill="#f7f4ee" stroke="transparent" points="-18,18 -18,-448 801.5,-448 801.5,18 -18,18"/>
<text text-anchor="middle" x="391.75" y="-406.8" font-family="Noto Sans CJK TC" font-size="24.00">PuzzleGamePlatform 系統分層架構</text>
<!-- ui -->
<g id="node1" class="node">
<title>ui</title>
<path fill="#e8eef7" stroke="#4b5563" stroke-width="1.2" d="M654.5,-396C654.5,-396 298.5,-396 298.5,-396 292.5,-396 286.5,-390 286.5,-384 286.5,-384 286.5,-348 286.5,-348 286.5,-342 292.5,-336 298.5,-336 298.5,-336 654.5,-336 654.5,-336 660.5,-336 666.5,-342 666.5,-348 666.5,-348 666.5,-384 666.5,-384 666.5,-390 660.5,-396 654.5,-396"/>
<text text-anchor="middle" x="476.5" y="-376.6" font-family="Noto Sans CJK TC" font-size="13.00" fill="#1f2937">View / Controller</text>
<text text-anchor="middle" x="476.5" y="-362.6" font-family="Noto Sans CJK TC" font-size="13.00" fill="#1f2937">Swing UI、WindowBuilder</text>
<text text-anchor="middle" x="476.5" y="-348.6" font-family="Noto Sans CJK TC" font-size="13.00" fill="#1f2937">LoginPage、GameMainPage、Admin Pages、Game Pages</text>
</g>
<!-- service -->
<g id="node2" class="node">
<title>service</title>
<path fill="#e9f5ee" stroke="#4b5563" stroke-width="1.2" d="M473.5,-284C473.5,-284 155.5,-284 155.5,-284 149.5,-284 143.5,-278 143.5,-272 143.5,-272 143.5,-236 143.5,-236 143.5,-230 149.5,-224 155.5,-224 155.5,-224 473.5,-224 473.5,-224 479.5,-224 485.5,-230 485.5,-236 485.5,-236 485.5,-272 485.5,-272 485.5,-278 479.5,-284 473.5,-284"/>
<text text-anchor="middle" x="314.5" y="-264.6" font-family="Noto Sans CJK TC" font-size="13.00" fill="#1f2937">Service / Business Logic</text>
<text text-anchor="middle" x="314.5" y="-250.6" font-family="Noto Sans CJK TC" font-size="13.00" fill="#1f2937">PlayerService、GameService、AdminReportService</text>
<text text-anchor="middle" x="314.5" y="-236.6" font-family="Noto Sans CJK TC" font-size="13.00" fill="#1f2937">PlayerAchievementService、GameEngine</text>
</g>
<!-- ui&#45;&gt;service -->
<g id="edge1" class="edge">
<title>ui&#45;&gt;service</title>
<path fill="none" stroke="#6b7280" stroke-width="1.2" d="M433.51,-335.81C412.74,-321.71 387.66,-304.68 365.89,-289.89"/>
<polygon fill="#6b7280" stroke="#6b7280" stroke-width="1.2" points="367.65,-286.86 357.41,-284.13 363.71,-292.65 367.65,-286.86"/>
<text text-anchor="middle" x="423.5" y="-307.2" font-family="Noto Sans CJK TC" font-size="11.00">呼叫功能</text>
</g>
<!-- resource -->
<g id="node6" class="node">
<title>resource</title>
<path fill="#ececec" stroke="#4b5563" stroke-width="1.2" d="M754,-277C754,-277 523,-277 523,-277 517,-277 511,-271 511,-265 511,-265 511,-243 511,-243 511,-237 517,-231 523,-231 523,-231 754,-231 754,-231 760,-231 766,-237 766,-243 766,-243 766,-265 766,-265 766,-271 760,-277 754,-277"/>
<text text-anchor="middle" x="638.5" y="-257.6" font-family="Noto Sans CJK TC" font-size="13.00" fill="#1f2937">Resources</text>
<text text-anchor="middle" x="638.5" y="-243.6" font-family="Noto Sans CJK TC" font-size="13.00" fill="#1f2937">背景圖片、20 個 WAV 音效、SQL Script</text>
</g>
<!-- ui&#45;&gt;resource -->
<g id="edge6" class="edge">
<title>ui&#45;&gt;resource</title>
<path fill="none" stroke="#6b7280" stroke-width="1.2" stroke-dasharray="5,2" d="M519.49,-335.81C543.61,-319.43 573.56,-299.09 597.38,-282.92"/>
<polygon fill="#6b7280" stroke="#6b7280" stroke-width="1.2" points="599.55,-285.68 605.85,-277.17 595.61,-279.89 599.55,-285.68"/>
<text text-anchor="middle" x="574" y="-307.2" font-family="Noto Sans CJK TC" font-size="11.00">載入</text>
</g>
<!-- dao -->
<g id="node3" class="node">
<title>dao</title>
<path fill="#fff4d8" stroke="#4b5563" stroke-width="1.2" d="M428.5,-172C428.5,-172 200.5,-172 200.5,-172 194.5,-172 188.5,-166 188.5,-160 188.5,-160 188.5,-124 188.5,-124 188.5,-118 194.5,-112 200.5,-112 200.5,-112 428.5,-112 428.5,-112 434.5,-112 440.5,-118 440.5,-124 440.5,-124 440.5,-160 440.5,-160 440.5,-166 434.5,-172 428.5,-172"/>
<text text-anchor="middle" x="314.5" y="-152.6" font-family="Noto Sans CJK TC" font-size="13.00" fill="#1f2937">DAO Pattern</text>
<text text-anchor="middle" x="314.5" y="-138.6" font-family="Noto Sans CJK TC" font-size="13.00" fill="#1f2937">DAO Interface + DAO Implementation</text>
<text text-anchor="middle" x="314.5" y="-124.6" font-family="Noto Sans CJK TC" font-size="13.00" fill="#1f2937">封裝 CRUD、查詢、交易與報表 SQL</text>
</g>
<!-- service&#45;&gt;dao -->
<g id="edge2" class="edge">
<title>service&#45;&gt;dao</title>
<path fill="none" stroke="#6b7280" stroke-width="1.2" d="M314.5,-223.81C314.5,-211.13 314.5,-196.08 314.5,-182.43"/>
<polygon fill="#6b7280" stroke="#6b7280" stroke-width="1.2" points="318,-182.33 314.5,-172.33 311,-182.33 318,-182.33"/>
<text text-anchor="middle" x="337.5" y="-195.2" font-family="Noto Sans CJK TC" font-size="11.00">資料存取</text>
</g>
<!-- entity -->
<g id="node4" class="node">
<title>entity</title>
<path fill="#f4e9f5" stroke="#4b5563" stroke-width="1.2" d="M301,-60C301,-60 12,-60 12,-60 6,-60 0,-54 0,-48 0,-48 0,-12 0,-12 0,-6 6,0 12,0 12,0 301,0 301,0 307,0 313,-6 313,-12 313,-12 313,-48 313,-48 313,-54 307,-60 301,-60"/>
<text text-anchor="middle" x="156.5" y="-40.6" font-family="Noto Sans CJK TC" font-size="13.00" fill="#1f2937">Model / Entity</text>
<text text-anchor="middle" x="156.5" y="-26.6" font-family="Noto Sans CJK TC" font-size="13.00" fill="#1f2937">Player、Game、Room、Puzzle、Item、Ending</text>
<text text-anchor="middle" x="156.5" y="-12.6" font-family="Noto Sans CJK TC" font-size="13.00" fill="#1f2937">Record、Achievement、SaveGame</text>
</g>
<!-- service&#45;&gt;entity -->
<g id="edge4" class="edge">
<title>service&#45;&gt;entity</title>
<path fill="none" stroke="#6b7280" stroke-width="1.2" d="M164.26,-219.55C141.87,-208.08 121.62,-192.68 107.5,-172 85.96,-140.44 105.49,-98.46 125.92,-68.53"/>
<polygon fill="#6b7280" stroke="#6b7280" stroke-width="1.2" points="162.75,-222.71 173.27,-223.92 165.79,-216.41 162.75,-222.71"/>
<polygon fill="#6b7280" stroke="#6b7280" stroke-width="1.2" points="129.01,-70.22 131.96,-60.05 123.31,-66.16 129.01,-70.22"/>
<text text-anchor="middle" x="141.5" y="-139.2" font-family="Noto Sans CJK TC" font-size="11.00">傳遞資料物件</text>
</g>
<!-- util -->
<g id="node7" class="node">
<title>util</title>
<path fill="#ececec" stroke="#4b5563" stroke-width="1.2" d="M771.5,-165C771.5,-165 477.5,-165 477.5,-165 471.5,-165 465.5,-159 465.5,-153 465.5,-153 465.5,-131 465.5,-131 465.5,-125 471.5,-119 477.5,-119 477.5,-119 771.5,-119 771.5,-119 777.5,-119 783.5,-125 783.5,-131 783.5,-131 783.5,-153 783.5,-153 783.5,-159 777.5,-165 771.5,-165"/>
<text text-anchor="middle" x="624.5" y="-145.6" font-family="Noto Sans CJK TC" font-size="13.00" fill="#1f2937">Utility</text>
<text text-anchor="middle" x="624.5" y="-131.6" font-family="Noto Sans CJK TC" font-size="13.00" fill="#1f2937">DbConnection、ReportExporter、SoundPlayer</text>
</g>
<!-- service&#45;&gt;util -->
<g id="edge7" class="edge">
<title>service&#45;&gt;util</title>
<path fill="none" stroke="#6b7280" stroke-width="1.2" stroke-dasharray="5,2" d="M396.35,-223.95C445.02,-206.69 506.17,-184.99 552.91,-168.4"/>
<polygon fill="#6b7280" stroke="#6b7280" stroke-width="1.2" points="554.11,-171.69 562.36,-165.05 551.76,-165.1 554.11,-171.69"/>
<text text-anchor="middle" x="491" y="-195.2" font-family="Noto Sans CJK TC" font-size="11.00">共用</text>
</g>
<!-- dao&#45;&gt;entity -->
<g id="edge5" class="edge">
<title>dao&#45;&gt;entity</title>
<path fill="none" stroke="#6b7280" stroke-width="1.2" d="M264.3,-106.05C245.88,-93.23 225.04,-78.71 206.62,-65.89"/>
<polygon fill="#6b7280" stroke="#6b7280" stroke-width="1.2" points="262.37,-108.97 272.57,-111.81 266.37,-103.22 262.37,-108.97"/>
<polygon fill="#6b7280" stroke="#6b7280" stroke-width="1.2" points="208.55,-62.98 198.35,-60.13 204.55,-68.72 208.55,-62.98"/>
<text text-anchor="middle" x="269" y="-83.2" font-family="Noto Sans CJK TC" font-size="11.00">映射資料列</text>
</g>
<!-- db -->
<g id="node5" class="node">
<title>db</title>
<path fill="#fbe8e2" stroke="#4b5563" stroke-width="1.2" d="M620.5,-53C620.5,-53 382.5,-53 382.5,-53 376.5,-53 370.5,-47 370.5,-41 370.5,-41 370.5,-19 370.5,-19 370.5,-13 376.5,-7 382.5,-7 382.5,-7 620.5,-7 620.5,-7 626.5,-7 632.5,-13 632.5,-19 632.5,-19 632.5,-41 632.5,-41 632.5,-47 626.5,-53 620.5,-53"/>
<text text-anchor="middle" x="501.5" y="-33.6" font-family="Noto Sans CJK TC" font-size="13.00" fill="#1f2937">MySQL 8.0 / puzzlegame</text>
<text text-anchor="middle" x="501.5" y="-19.6" font-family="Noto Sans CJK TC" font-size="13.00" fill="#1f2937">12 張資料表 + vw_player_game_record</text>
</g>
<!-- dao&#45;&gt;db -->
<g id="edge3" class="edge">
<title>dao&#45;&gt;db</title>
<path fill="none" stroke="#6b7280" stroke-width="1.2" d="M364.12,-111.81C392.34,-95.21 427.45,-74.56 455.11,-58.29"/>
<polygon fill="#6b7280" stroke="#6b7280" stroke-width="1.2" points="456.97,-61.25 463.82,-53.17 453.42,-55.22 456.97,-61.25"/>
<text text-anchor="middle" x="479" y="-83.2" font-family="Noto Sans CJK TC" font-size="11.00">JDBC / MySQL Connector</text>
</g>
<!-- util&#45;&gt;db -->
<g id="edge8" class="edge">
<title>util&#45;&gt;db</title>
<path fill="none" stroke="#6b7280" stroke-width="1.2" stroke-dasharray="5,2" d="M599.61,-118.74C580.69,-101.82 554.49,-78.39 533.93,-60"/>
<polygon fill="#6b7280" stroke="#6b7280" stroke-width="1.2" points="536.14,-57.28 526.35,-53.23 531.47,-62.5 536.14,-57.28"/>
<text text-anchor="middle" x="597.5" y="-83.2" font-family="Noto Sans CJK TC" font-size="11.00">Connection</text>
</g>
</g>
</svg>
