<?xml version="1.0" encoding="UTF-8" standalone="no"?>
<!DOCTYPE svg PUBLIC "-//W3C//DTD SVG 1.1//EN"
 "http://www.w3.org/Graphics/SVG/1.1/DTD/svg11.dtd">
<!-- Generated by graphviz version 2.42.4 (0)
 -->
<!-- Title: Flow Pages: 1 -->
<svg width="1275pt" height="398pt"
 viewBox="0.00 0.00 1275.30 398.00" xmlns="http://www.w3.org/2000/svg" xmlns:xlink="http://www.w3.org/1999/xlink">
<g id="graph0" class="graph" transform="scale(1 1) rotate(0) translate(18 380)">
<title>Flow</title>
<polygon fill="#f7f4ee" stroke="transparent" points="-18,18 -18,-380 1257.3,-380 1257.3,18 -18,18"/>
<text text-anchor="middle" x="619.65" y="-338.8" font-family="Noto Sans CJK TC" font-size="24.00">PuzzleGamePlatform 主要操作流程</text>
<!-- start -->
<g id="node1" class="node">
<title>start</title>
<ellipse fill="#e5e7eb" stroke="#4b5563" stroke-width="1.2" cx="34.65" cy="-164" rx="34.8" ry="34.8"/>
<text text-anchor="middle" x="34.65" y="-160.9" font-family="Noto Sans CJK TC" font-size="12.00">啟動</text>
</g>
<!-- login -->
<g id="node2" class="node">
<title>login</title>
<path fill="#e8eef7" stroke="#4b5563" stroke-width="1.2" d="M243.3,-184C243.3,-184 122.3,-184 122.3,-184 116.3,-184 110.3,-178 110.3,-172 110.3,-172 110.3,-156 110.3,-156 110.3,-150 116.3,-144 122.3,-144 122.3,-144 243.3,-144 243.3,-144 249.3,-144 255.3,-150 255.3,-156 255.3,-156 255.3,-172 255.3,-172 255.3,-178 249.3,-184 243.3,-184"/>
<text text-anchor="middle" x="182.8" y="-167.4" font-family="Noto Sans CJK TC" font-size="12.00">登入 / 註冊</text>
<text text-anchor="middle" x="182.8" y="-154.4" font-family="Noto Sans CJK TC" font-size="12.00">驗證帳號、密碼、狀態</text>
</g>
<!-- start&#45;&gt;login -->
<g id="edge1" class="edge">
<title>start&#45;&gt;login</title>
<path fill="none" stroke="#6b7280" stroke-width="1.2" d="M69.54,-164C78.75,-164 89.13,-164 99.76,-164"/>
<polygon fill="#6b7280" stroke="#6b7280" stroke-width="1.2" points="100.01,-167.5 110.01,-164 100.01,-160.5 100.01,-167.5"/>
</g>
<!-- role -->
<g id="node3" class="node">
<title>role</title>
<path fill="#fff4d8" stroke="#4b5563" stroke-width="1.2" d="M358.04,-186.84C358.04,-186.84 307.55,-168.16 307.55,-168.16 301.92,-166.08 301.92,-161.92 307.55,-159.84 307.55,-159.84 358.04,-141.16 358.04,-141.16 363.67,-139.08 374.92,-139.08 380.55,-141.16 380.55,-141.16 431.04,-159.84 431.04,-159.84 436.67,-161.92 436.67,-166.08 431.04,-168.16 431.04,-168.16 380.55,-186.84 380.55,-186.84 374.92,-188.92 363.67,-188.92 358.04,-186.84"/>
<text text-anchor="middle" x="369.3" y="-160.9" font-family="Noto Sans CJK TC" font-size="12.00">角色判斷</text>
</g>
<!-- login&#45;&gt;role -->
<g id="edge2" class="edge">
<title>login&#45;&gt;role</title>
<path fill="none" stroke="#6b7280" stroke-width="1.2" d="M255.39,-164C265.42,-164 275.79,-164 286,-164"/>
<polygon fill="#6b7280" stroke="#6b7280" stroke-width="1.2" points="286.13,-167.5 296.13,-164 286.13,-160.5 286.13,-167.5"/>
</g>
<!-- player -->
<g id="node4" class="node">
<title>player</title>
<path fill="#e9f5ee" stroke="#4b5563" stroke-width="1.2" d="M661.3,-256C661.3,-256 529.3,-256 529.3,-256 523.3,-256 517.3,-250 517.3,-244 517.3,-244 517.3,-228 517.3,-228 517.3,-222 523.3,-216 529.3,-216 529.3,-216 661.3,-216 661.3,-216 667.3,-216 673.3,-222 673.3,-228 673.3,-228 673.3,-244 673.3,-244 673.3,-250 667.3,-256 661.3,-256"/>
<text text-anchor="middle" x="595.3" y="-239.4" font-family="Noto Sans CJK TC" font-size="12.00">玩家大廳</text>
<text text-anchor="middle" x="595.3" y="-226.4" font-family="Noto Sans CJK TC" font-size="12.00">選擇 5 款遊戲 / 我的成就</text>
</g>
<!-- role&#45;&gt;player -->
<g id="edge3" class="edge">
<title>role&#45;&gt;player</title>
<path fill="none" stroke="#6b7280" stroke-width="1.2" d="M409.06,-176.46C440.09,-186.43 484.49,-200.71 522.04,-212.77"/>
<polygon fill="#6b7280" stroke="#6b7280" stroke-width="1.2" points="521.34,-216.22 531.93,-215.95 523.48,-209.56 521.34,-216.22"/>
<text text-anchor="middle" x="479.8" y="-208" font-family="Noto Sans CJK TC" font-size="10.00">PLAYER</text>
</g>
<!-- admin -->
<g id="node8" class="node">
<title>admin</title>
<path fill="#fbe8e2" stroke="#4b5563" stroke-width="1.2" d="M625.8,-146C625.8,-146 564.8,-146 564.8,-146 558.8,-146 552.8,-140 552.8,-134 552.8,-134 552.8,-122 552.8,-122 552.8,-116 558.8,-110 564.8,-110 564.8,-110 625.8,-110 625.8,-110 631.8,-110 637.8,-116 637.8,-122 637.8,-122 637.8,-134 637.8,-134 637.8,-140 631.8,-146 625.8,-146"/>
<text text-anchor="middle" x="595.3" y="-124.9" font-family="Noto Sans CJK TC" font-size="12.00">管理員首頁</text>
</g>
<!-- role&#45;&gt;admin -->
<g id="edge4" class="edge">
<title>role&#45;&gt;admin</title>
<path fill="none" stroke="#6b7280" stroke-width="1.2" d="M413.16,-153.18C428.58,-149.56 446.15,-145.75 462.3,-143 488.56,-138.53 517.99,-135.03 542.39,-132.55"/>
<polygon fill="#6b7280" stroke="#6b7280" stroke-width="1.2" points="542.91,-136.02 552.51,-131.55 542.22,-129.05 542.91,-136.02"/>
<text text-anchor="middle" x="479.8" y="-146" font-family="Noto Sans CJK TC" font-size="10.00">ADMIN</text>
</g>
<!-- game -->
<g id="node5" class="node">
<title>game</title>
<path fill="#e9f5ee" stroke="#4b5563" stroke-width="1.2" d="M916.3,-328C916.3,-328 783.3,-328 783.3,-328 777.3,-328 771.3,-322 771.3,-316 771.3,-316 771.3,-300 771.3,-300 771.3,-294 777.3,-288 783.3,-288 783.3,-288 916.3,-288 916.3,-288 922.3,-288 928.3,-294 928.3,-300 928.3,-300 928.3,-316 928.3,-316 928.3,-322 922.3,-328 916.3,-328"/>
<text text-anchor="middle" x="849.8" y="-311.4" font-family="Noto Sans CJK TC" font-size="12.00">遊戲頁面</text>
<text text-anchor="middle" x="849.8" y="-298.4" font-family="Noto Sans CJK TC" font-size="12.00">解謎、提示、背包、音效</text>
</g>
<!-- player&#45;&gt;game -->
<g id="edge5" class="edge">
<title>player&#45;&gt;game</title>
<path fill="none" stroke="#6b7280" stroke-width="1.2" d="M666.63,-256.06C698.24,-265.07 735.7,-275.75 768.41,-285.08"/>
<polygon fill="#6b7280" stroke="#6b7280" stroke-width="1.2" points="767.82,-288.55 778.4,-287.93 769.74,-281.82 767.82,-288.55"/>
<text text-anchor="middle" x="713.3" y="-278" font-family="Noto Sans CJK TC" font-size="10.00">開始遊戲</text>
</g>
<!-- exportp -->
<g id="node7" class="node">
<title>exportp</title>
<path fill="#f4e9f5" stroke="#4b5563" stroke-width="1.2" d="M910.3,-256C910.3,-256 789.3,-256 789.3,-256 783.3,-256 777.3,-250 777.3,-244 777.3,-244 777.3,-228 777.3,-228 777.3,-222 783.3,-216 789.3,-216 789.3,-216 910.3,-216 910.3,-216 916.3,-216 922.3,-222 922.3,-228 922.3,-228 922.3,-244 922.3,-244 922.3,-250 916.3,-256 910.3,-256"/>
<text text-anchor="middle" x="849.8" y="-239.4" font-family="Noto Sans CJK TC" font-size="12.00">玩家成就輸出</text>
<text text-anchor="middle" x="849.8" y="-226.4" font-family="Noto Sans CJK TC" font-size="12.00">CSV / TXT / PDF / 列印</text>
</g>
<!-- player&#45;&gt;exportp -->
<g id="edge7" class="edge">
<title>player&#45;&gt;exportp</title>
<path fill="none" stroke="#6b7280" stroke-width="1.2" d="M673.43,-236C703.01,-236 736.84,-236 766.86,-236"/>
<polygon fill="#6b7280" stroke="#6b7280" stroke-width="1.2" points="766.88,-239.5 776.88,-236 766.88,-232.5 766.88,-239.5"/>
<text text-anchor="middle" x="713.3" y="-239" font-family="Noto Sans CJK TC" font-size="10.00">我的成就</text>
</g>
<!-- record -->
<g id="node6" class="node">
<title>record</title>
<path fill="#f4e9f5" stroke="#4b5563" stroke-width="1.2" d="M1227.3,-328C1227.3,-328 1046.3,-328 1046.3,-328 1040.3,-328 1034.3,-322 1034.3,-316 1034.3,-316 1034.3,-300 1034.3,-300 1034.3,-294 1040.3,-288 1046.3,-288 1046.3,-288 1227.3,-288 1227.3,-288 1233.3,-288 1239.3,-294 1239.3,-300 1239.3,-300 1239.3,-316 1239.3,-316 1239.3,-322 1233.3,-328 1227.3,-328"/>
<text text-anchor="middle" x="1136.8" y="-311.4" font-family="Noto Sans CJK TC" font-size="12.00">保存遊玩資料</text>
<text text-anchor="middle" x="1136.8" y="-298.4" font-family="Noto Sans CJK TC" font-size="12.00">遊玩紀錄、答題紀錄、背包、成就</text>
</g>
<!-- game&#45;&gt;record -->
<g id="edge6" class="edge">
<title>game&#45;&gt;record</title>
<path fill="none" stroke="#6b7280" stroke-width="1.2" d="M928.3,-308C957.75,-308 991.91,-308 1023.91,-308"/>
<polygon fill="#6b7280" stroke="#6b7280" stroke-width="1.2" points="1024.22,-311.5 1034.22,-308 1024.22,-304.5 1024.22,-311.5"/>
<text text-anchor="middle" x="990.3" y="-311" font-family="Noto Sans CJK TC" font-size="10.00">作答 / 通關</text>
</g>
<!-- players -->
<g id="node9" class="node">
<title>players</title>
<path fill="#fbe8e2" stroke="#4b5563" stroke-width="1.2" d="M916.3,-184C916.3,-184 783.3,-184 783.3,-184 777.3,-184 771.3,-178 771.3,-172 771.3,-172 771.3,-156 771.3,-156 771.3,-150 777.3,-144 783.3,-144 783.3,-144 916.3,-144 916.3,-144 922.3,-144 928.3,-150 928.3,-156 928.3,-156 928.3,-172 928.3,-172 928.3,-178 922.3,-184 916.3,-184"/>
<text text-anchor="middle" x="849.8" y="-167.4" font-family="Noto Sans CJK TC" font-size="12.00">玩家管理</text>
<text text-anchor="middle" x="849.8" y="-154.4" font-family="Noto Sans CJK TC" font-size="12.00">新增、修改、停用、刪除</text>
</g>
<!-- admin&#45;&gt;players -->
<g id="edge8" class="edge">
<title>admin&#45;&gt;players</title>
<path fill="none" stroke="#6b7280" stroke-width="1.2" d="M637.99,-133.94C671.38,-138.71 719.38,-145.55 761.14,-151.5"/>
<polygon fill="#6b7280" stroke="#6b7280" stroke-width="1.2" points="760.66,-154.97 771.06,-152.92 761.65,-148.04 760.66,-154.97"/>
</g>
<!-- games -->
<g id="node10" class="node">
<title>games</title>
<path fill="#fbe8e2" stroke="#4b5563" stroke-width="1.2" d="M934.3,-112C934.3,-112 765.3,-112 765.3,-112 759.3,-112 753.3,-106 753.3,-100 753.3,-100 753.3,-84 753.3,-84 753.3,-78 759.3,-72 765.3,-72 765.3,-72 934.3,-72 934.3,-72 940.3,-72 946.3,-78 946.3,-84 946.3,-84 946.3,-100 946.3,-100 946.3,-106 940.3,-112 934.3,-112"/>
<text text-anchor="middle" x="849.8" y="-95.4" font-family="Noto Sans CJK TC" font-size="12.00">遊戲內容管理</text>
<text text-anchor="middle" x="849.8" y="-82.4" font-family="Noto Sans CJK TC" font-size="12.00">遊戲、房間、謎題、道具、結局</text>
</g>
<!-- admin&#45;&gt;games -->
<g id="edge9" class="edge">
<title>admin&#45;&gt;games</title>
<path fill="none" stroke="#6b7280" stroke-width="1.2" d="M637.99,-122.06C666.61,-117.98 705.95,-112.37 742.9,-107.1"/>
<polygon fill="#6b7280" stroke="#6b7280" stroke-width="1.2" points="743.84,-110.5 753.25,-105.62 742.86,-103.57 743.84,-110.5"/>
</g>
<!-- reports -->
<g id="node11" class="node">
<title>reports</title>
<path fill="#fbe8e2" stroke="#4b5563" stroke-width="1.2" d="M928.3,-40C928.3,-40 771.3,-40 771.3,-40 765.3,-40 759.3,-34 759.3,-28 759.3,-28 759.3,-12 759.3,-12 759.3,-6 765.3,0 771.3,0 771.3,0 928.3,0 928.3,0 934.3,0 940.3,-6 940.3,-12 940.3,-12 940.3,-28 940.3,-28 940.3,-34 934.3,-40 928.3,-40"/>
<text text-anchor="middle" x="849.8" y="-23.4" font-family="Noto Sans CJK TC" font-size="12.00">報表中心</text>
<text text-anchor="middle" x="849.8" y="-10.4" font-family="Noto Sans CJK TC" font-size="12.00">玩家、遊戲、遊玩紀錄與匯出</text>
</g>
<!-- admin&#45;&gt;reports -->
<g id="edge10" class="edge">
<title>admin&#45;&gt;reports</title>
<path fill="none" stroke="#6b7280" stroke-width="1.2" d="M633.72,-109.95C665.33,-94.92 711.92,-73.26 753.3,-56 763.25,-51.85 773.87,-47.63 784.27,-43.62"/>
<polygon fill="#6b7280" stroke="#6b7280" stroke-width="1.2" points="785.65,-46.84 793.75,-40.01 783.15,-40.31 785.65,-46.84"/>
</g>
</g>
</svg>
